<svg
        xmlns="http://www.w3.org/2000/svg"
        xmlns:xlink="http://www.w3.org/1999/xlink"
        width="322px" height="116px">
    <defs>
        <linearGradient id="PSgrad_0" x1="0%" x2="0%" y1="100%" y2="0%">
            <stop offset="0%" stop-color="rgb(255,255,255)" stop-opacity="0.25" />
            <stop offset="100%" stop-color="rgb(255,255,255)" stop-opacity="0" />
        </linearGradient>
        <linearGradient id="PSgrad_1" x1="0%" x2="100%" y1="0%" y2="0%">
            <stop offset="0%" stop-color="rgb(0,0,0)" stop-opacity="0.1" />
            <stop offset="100%" stop-color="rgb(0,0,0)" stop-opacity="0" />
        </linearGradient>

    </defs>
    <path fill-rule="evenodd"  fill="rgb(0, 85, 147)"
          d="M41.000,49.000 L40.649,19.190 L159.000,0.000 L281.351,19.003 L281.000,51.000 L41.000,49.000 Z"/>
    <path fill="url(#PSgrad_0)"
          d="M41.000,49.000 L40.649,19.190 L159.000,0.000 L281.351,19.003 L281.000,51.000 L41.000,49.000 Z"/>
    <path fill-rule="evenodd"  fill="rgb(255, 255, 255)"
          d="M40.649,19.190 L161.000,47.644 L161.000,116.000 L-0.000,77.414 L40.649,19.190 Z"/>
    <path fill="url(#PSgrad_1)"
          d="M40.649,19.190 L161.000,47.644 L161.000,116.000 L-0.000,77.414 L40.649,19.190 Z"/>
    <path fill-rule="evenodd"  fill="rgb(238, 238, 238)"
          d="M281.351,19.003 L161.000,47.512 L161.000,116.000 L322.000,77.340 L281.351,19.003 Z"/>
    <path fill="url(#PSgrad_1)"
          d="M281.351,19.003 L161.000,47.512 L161.000,116.000 L322.000,77.340 L281.351,19.003 Z"/>
</svg>
