<?xml version="1.0" standalone="no"?>
<!DOCTYPE svg PUBLIC "-//W3C//DTD SVG 20010904//EN"
 "http://www.w3.org/TR/2001/REC-SVG-20010904/DTD/svg10.dtd">
<svg version="1.0" xmlns="http://www.w3.org/2000/svg"
 width="700.000000pt" height="700.000000pt" viewBox="0 0 700.000000 700.000000"
 preserveAspectRatio="xMidYMid meet">
<metadata>
Created by potrace 1.11, written by Peter Selinger 2001-2013
</metadata>
<g transform="translate(0.000000,700.000000) scale(0.100000,-0.100000)"
fill="#000000" stroke="none">
<path d="M0 3500 l0 -3500 3500 0 3500 0 0 3500 0 3500 -740 0 -740 0 0 -1787
1 -1788 25 30 c13 17 131 166 262 332 l237 302 323 1 c177 0 322 -2 322 -4 0
-2 -136 -163 -301 -357 -166 -195 -303 -360 -306 -366 -3 -7 136 -205 309
-439 172 -235 317 -433 321 -441 7 -11 -50 -13 -321 -13 l-329 0 -263 385
c-145 212 -267 385 -272 385 -4 0 -8 -173 -8 -385 l0 -385 -270 0 -270 0 0
2265 0 2265 -210 0 -210 0 0 -2265 0 -2265 -250 0 -250 0 0 106 0 107 -35 -45
c-61 -80 -190 -160 -316 -194 -97 -27 -289 -25 -394 5 -212 59 -371 202 -474
423 -49 104 -67 174 -82 310 -21 188 8 356 90 523 107 217 275 358 485 410 93
23 270 23 356 1 97 -24 203 -80 270 -143 l60 -55 0 1541 0 1541 -2010 0 -2010
0 0 -3500z m1661 1330 c227 -23 445 -97 610 -207 84 -55 114 -87 102 -106 -4
-8 -82 -98 -172 -200 l-164 -186 -59 54 c-68 63 -173 117 -273 141 -96 23
-269 22 -360 -1 -232 -59 -415 -244 -482 -486 -25 -90 -25 -347 0 -439 68
-256 257 -437 507 -486 118 -23 324 -15 435 18 l80 23 3 213 2 212 -215 0
-215 0 0 225 0 225 475 0 475 0 0 -610 0 -610 -61 -31 c-85 -42 -274 -104
-394 -128 -377 -75 -759 -47 -1022 74 -168 78 -355 229 -463 375 -154 208
-228 474 -217 780 12 335 115 588 325 798 273 272 650 395 1083 352z"/>
<path d="M3552 3686 c-160 -39 -269 -186 -280 -376 -10 -194 84 -363 234 -419
82 -31 206 -31 286 -1 164 62 274 264 247 454 -35 249 -249 399 -487 342z"/>
</g>
</svg>
